<?xml version="1.0" encoding="utf-8"?>
<!-- Generator: Adobe Illustrator 13.0.2, SVG Export Plug-In . SVG Version: 6.00 Build 14948)  -->
<!DOCTYPE svg PUBLIC "-//W3C//DTD SVG 1.1//EN" "http://www.w3.org/Graphics/SVG/1.1/DTD/svg11.dtd">
<svg version="1.1" id="Layer_1" xmlns="http://www.w3.org/2000/svg" xmlns:xlink="http://www.w3.org/1999/xlink" x="0px" y="0px"
	 width="512px" height="512px" viewBox="0 0 512 512" enable-background="new 0 0 512 512" xml:space="preserve">
<path d="M478.145,402.241L320,138.729V32h16c8.8,0,16-7.2,16-16s-7.2-16-16-16H176c-8.8,0-16,7.2-16,16s7.2,16,16,16h16v106.729
	L33.856,402.241C-2.365,462.608,25.6,512,96,512h320C486.4,512,514.365,462.608,478.145,402.241z M120.519,320L224,147.531V32h64
	v115.531L391.482,320H120.519L120.519,320z"/>
</svg>
